<svg width="100" height="100" viewBox="0 0 100 100" fill="none" xmlns="http://www.w3.org/2000/svg">
<rect width="100" height="100" fill="#546886"/>
<line x1="7" y1="11" x2="94" y2="11" stroke="#E2E9F4" stroke-width="2" stroke-linecap="round"/>
<line x1="7" y1="24" x2="94" y2="24" stroke="#E2E9F4" stroke-width="2" stroke-linecap="round"/>
<line x1="7" y1="37" x2="94" y2="37" stroke="#E2E9F4" stroke-width="2" stroke-linecap="round"/>
<line x1="7" y1="11" x2="64" y2="11" stroke="#9DBBE8" stroke-width="2" stroke-linecap="round"/>
<line x1="7" y1="24" x2="35" y2="24" stroke="#9DBBE8" stroke-width="2" stroke-linecap="round"/>
<line x1="7" y1="37" x2="43" y2="37" stroke="#9DBBE8" stroke-width="2" stroke-linecap="round"/>
<path d="M76.1747 7.55256V7.33523L77.1335 5.81818H77.2912V6.15483H77.1847L76.4602 7.30114V7.31818H77.7514V7.55256H76.1747ZM77.2017 8V7.48651V7.3853V5.81818H77.4531V8H77.2017ZM78.8879 8.02983C78.7472 8.02983 78.6219 8.00568 78.5118 7.95739C78.4024 7.90909 78.3154 7.84197 78.2508 7.75604C78.1869 7.66939 78.1521 7.56889 78.1464 7.45455H78.4149C78.4205 7.52486 78.4447 7.58558 78.4873 7.63672C78.5299 7.68714 78.5857 7.72621 78.6546 7.75391C78.7235 7.78161 78.7998 7.79545 78.8836 7.79545C78.9774 7.79545 79.0605 7.77912 79.1329 7.74645C79.2053 7.71378 79.2622 7.66832 79.3034 7.61009C79.3445 7.55185 79.3651 7.48438 79.3651 7.40767C79.3651 7.32741 79.3453 7.25675 79.3055 7.19567C79.2657 7.13388 79.2075 7.08558 79.1308 7.05078C79.0541 7.01598 78.9603 6.99858 78.8495 6.99858H78.6748V6.7642H78.8495C78.9362 6.7642 79.0122 6.74858 79.0775 6.71733C79.1436 6.68608 79.195 6.64205 79.232 6.58523C79.2696 6.52841 79.2884 6.46165 79.2884 6.38494C79.2884 6.31108 79.2721 6.2468 79.2394 6.19212C79.2068 6.13743 79.1606 6.09482 79.1009 6.06428C79.042 6.03374 78.9724 6.01847 78.8921 6.01847C78.8169 6.01847 78.7458 6.03232 78.6791 6.06001C78.613 6.087 78.559 6.12642 78.5171 6.17827C78.4752 6.2294 78.4525 6.29119 78.449 6.36364H78.1933C78.1975 6.24929 78.232 6.14915 78.2966 6.06321C78.3612 5.97656 78.4458 5.90909 78.5502 5.8608C78.6553 5.8125 78.7707 5.78835 78.8964 5.78835C79.0313 5.78835 79.1471 5.8157 79.2437 5.87038C79.3403 5.92436 79.4145 5.99574 79.4664 6.08452C79.5182 6.1733 79.5441 6.26918 79.5441 6.37216C79.5441 6.49503 79.5118 6.59979 79.4472 6.68643C79.3833 6.77308 79.2963 6.8331 79.1862 6.86648V6.88352C79.324 6.90625 79.4316 6.96484 79.509 7.0593C79.5864 7.15305 79.6251 7.26918 79.6251 7.40767C79.6251 7.52628 79.5928 7.63281 79.5281 7.72727C79.4642 7.82102 79.3769 7.89489 79.2661 7.94886C79.1553 8.00284 79.0292 8.02983 78.8879 8.02983ZM80.7426 8.02983C80.6176 8.02983 80.5051 8.00497 80.4049 7.95526C80.3048 7.90554 80.2245 7.83736 80.1642 7.75071C80.1038 7.66406 80.0708 7.56534 80.0651 7.45455H80.3208C80.3307 7.55327 80.3754 7.63494 80.455 7.69957C80.5352 7.76349 80.6311 7.79545 80.7426 7.79545C80.8321 7.79545 80.9117 7.7745 80.9813 7.7326C81.0516 7.6907 81.1066 7.63317 81.1464 7.56001C81.1869 7.48615 81.2071 7.4027 81.2071 7.30966C81.2071 7.21449 81.1862 7.12962 81.1443 7.05504C81.1031 6.97976 81.0463 6.92045 80.9738 6.87713C80.9014 6.83381 80.8186 6.81179 80.7256 6.81108C80.6588 6.81037 80.5903 6.82067 80.52 6.84197C80.4497 6.86257 80.3918 6.8892 80.3463 6.92188L80.0992 6.89205L80.2313 5.81818H81.3648V6.05256H80.4529L80.3762 6.69602H80.3889C80.4337 6.66051 80.4898 6.63104 80.5573 6.6076C80.6247 6.58416 80.695 6.57244 80.7682 6.57244C80.9017 6.57244 81.0207 6.6044 81.1251 6.66832C81.2302 6.73153 81.3126 6.81818 81.3722 6.92827C81.4326 7.03835 81.4628 7.16406 81.4628 7.3054C81.4628 7.4446 81.4316 7.56889 81.3691 7.67827C81.3073 7.78693 81.222 7.87287 81.1134 7.93608C81.0047 7.99858 80.8811 8.02983 80.7426 8.02983ZM81.9542 8L82.93 6.0696V6.05256H81.805V5.81818H83.2028V6.06534L82.2312 8H81.9542ZM84.4479 8V6.36364H84.6908V6.61932H84.7121C84.7462 6.53196 84.8012 6.46413 84.8772 6.41584C84.9532 6.36683 85.0445 6.34233 85.151 6.34233C85.259 6.34233 85.3488 6.36683 85.4205 6.41584C85.493 6.46413 85.5494 6.53196 85.5899 6.61932H85.607C85.6489 6.5348 85.7117 6.46768 85.7955 6.41797C85.8794 6.36754 85.9798 6.34233 86.097 6.34233C86.2433 6.34233 86.363 6.38814 86.4561 6.47976C86.5491 6.57067 86.5956 6.71236 86.5956 6.90483V8H86.3442V6.90483C86.3442 6.78409 86.3112 6.6978 86.2451 6.64595C86.1791 6.59411 86.1013 6.56818 86.0118 6.56818C85.8968 6.56818 85.8076 6.60298 85.7444 6.67259C85.6812 6.74148 85.6496 6.82884 85.6496 6.93466V8H85.3939V6.87926C85.3939 6.78622 85.3637 6.71129 85.3034 6.65447C85.243 6.59695 85.1652 6.56818 85.07 6.56818C85.0047 6.56818 84.9436 6.58558 84.8868 6.62038C84.8307 6.65518 84.7852 6.70348 84.7504 6.76527C84.7164 6.82635 84.6993 6.89702 84.6993 6.97727V8H84.4479ZM87.2385 8.01705C87.186 8.01705 87.1409 7.99822 87.1032 7.96058C87.0656 7.92294 87.0468 7.87784 87.0468 7.82528C87.0468 7.77273 87.0656 7.72763 87.1032 7.68999C87.1409 7.65234 87.186 7.63352 87.2385 7.63352C87.2911 7.63352 87.3362 7.65234 87.3738 7.68999C87.4115 7.72763 87.4303 7.77273 87.4303 7.82528C87.4303 7.86009 87.4214 7.89205 87.4037 7.92116C87.3866 7.95028 87.3635 7.97372 87.3344 7.99148C87.306 8.00852 87.2741 8.01705 87.2385 8.01705ZM88.9127 7.33097V6.36364H89.1642V8H88.9127V7.72301H88.8957C88.8573 7.80611 88.7977 7.87678 88.7167 7.93501C88.6357 7.99254 88.5335 8.02131 88.4099 8.02131C88.3076 8.02131 88.2167 7.99893 88.1372 7.95419C88.0576 7.90874 87.9951 7.84055 87.9497 7.74964C87.9042 7.65803 87.8815 7.54261 87.8815 7.40341V6.36364H88.1329V7.38636C88.1329 7.50568 88.1663 7.60085 88.233 7.67188C88.3005 7.7429 88.3865 7.77841 88.4909 7.77841C88.5534 7.77841 88.6169 7.76243 88.6816 7.73047C88.7469 7.69851 88.8016 7.6495 88.8456 7.58345C88.8904 7.5174 88.9127 7.43324 88.9127 7.33097ZM88.2181 6.09091C88.1734 6.09091 88.1336 6.07386 88.0988 6.03977C88.0647 6.00497 88.0477 5.9652 88.0477 5.92045C88.0477 5.87145 88.0647 5.83097 88.0988 5.79901C88.1336 5.76634 88.1734 5.75 88.2181 5.75C88.2671 5.75 88.3076 5.76634 88.3396 5.79901C88.3722 5.83097 88.3886 5.87145 88.3886 5.92045C88.3886 5.9652 88.3722 6.00497 88.3396 6.03977C88.3076 6.07386 88.2671 6.09091 88.2181 6.09091ZM88.8318 6.09091C88.787 6.09091 88.7472 6.07386 88.7124 6.03977C88.6784 6.00497 88.6613 5.9652 88.6613 5.92045C88.6613 5.87145 88.6784 5.83097 88.7124 5.79901C88.7472 5.76634 88.787 5.75 88.8318 5.75C88.8808 5.75 88.9213 5.76634 88.9532 5.79901C88.9859 5.83097 89.0022 5.87145 89.0022 5.92045C89.0022 5.9652 88.9859 6.00497 88.9532 6.03977C88.9213 6.07386 88.8808 6.09091 88.8318 6.09091ZM89.8079 8.01705C89.7553 8.01705 89.7102 7.99822 89.6726 7.96058C89.6349 7.92294 89.6161 7.87784 89.6161 7.82528C89.6161 7.77273 89.6349 7.72763 89.6726 7.68999C89.7102 7.65234 89.7553 7.63352 89.8079 7.63352C89.8604 7.63352 89.9055 7.65234 89.9432 7.68999C89.9808 7.72763 89.9996 7.77273 89.9996 7.82528C89.9996 7.86009 89.9908 7.89205 89.973 7.92116C89.956 7.95028 89.9329 7.97372 89.9038 7.99148C89.8754 8.00852 89.8434 8.01705 89.8079 8.01705ZM91.3287 5.81818H91.644L92.3855 7.62926H92.411L93.1525 5.81818H93.4679V8H93.2207V6.34233H93.1994L92.5176 8H92.2789L91.5971 6.34233H91.5758V8H91.3287V5.81818ZM94.1468 8.01705C94.0942 8.01705 94.0491 7.99822 94.0115 7.96058C93.9738 7.92294 93.955 7.87784 93.955 7.82528C93.955 7.77273 93.9738 7.72763 94.0115 7.68999C94.0491 7.65234 94.0942 7.63352 94.1468 7.63352C94.1993 7.63352 94.2444 7.65234 94.282 7.68999C94.3197 7.72763 94.3385 7.77273 94.3385 7.82528C94.3385 7.86009 94.3296 7.89205 94.3119 7.92116C94.2948 7.95028 94.2718 7.97372 94.2426 7.99148C94.2142 8.00852 94.1823 8.01705 94.1468 8.01705Z" fill="#F7FAFB"/>
<path d="M85.9247 21.0298C85.7784 21.0298 85.6491 21.0039 85.5369 20.9521C85.4254 20.8995 85.3384 20.8274 85.2759 20.7358C85.2134 20.6435 85.1825 20.5384 85.1832 20.4205C85.1825 20.3281 85.2006 20.2429 85.2376 20.1648C85.2745 20.0859 85.3249 20.0202 85.3888 19.9677C85.4535 19.9144 85.5256 19.8807 85.6051 19.8665V19.8537C85.5007 19.8267 85.4176 19.7681 85.3558 19.6779C85.294 19.587 85.2635 19.4837 85.2642 19.3679C85.2635 19.2571 85.2915 19.158 85.3484 19.0707C85.4052 18.9833 85.4833 18.9144 85.5827 18.864C85.6829 18.8136 85.7969 18.7884 85.9247 18.7884C86.0511 18.7884 86.1641 18.8136 86.2635 18.864C86.3629 18.9144 86.4411 18.9833 86.4979 19.0707C86.5554 19.158 86.5845 19.2571 86.5852 19.3679C86.5845 19.4837 86.5529 19.587 86.4904 19.6779C86.4286 19.7681 86.3466 19.8267 86.2443 19.8537V19.8665C86.3232 19.8807 86.3942 19.9144 86.4574 19.9677C86.5206 20.0202 86.571 20.0859 86.6087 20.1648C86.6463 20.2429 86.6655 20.3281 86.6662 20.4205C86.6655 20.5384 86.6335 20.6435 86.5703 20.7358C86.5078 20.8274 86.4208 20.8995 86.3093 20.9521C86.1985 21.0039 86.0703 21.0298 85.9247 21.0298ZM85.9247 20.7955C86.0234 20.7955 86.1087 20.7795 86.1804 20.7475C86.2521 20.7156 86.3075 20.6705 86.3466 20.6122C86.3857 20.554 86.4055 20.4858 86.4062 20.4077C86.4055 20.3253 86.3842 20.2525 86.3423 20.1893C86.3004 20.1261 86.2433 20.0763 86.1708 20.0401C86.0991 20.0039 86.017 19.9858 85.9247 19.9858C85.8317 19.9858 85.7486 20.0039 85.6754 20.0401C85.603 20.0763 85.5458 20.1261 85.5039 20.1893C85.4627 20.2525 85.4425 20.3253 85.4432 20.4077C85.4425 20.4858 85.4613 20.554 85.4996 20.6122C85.5387 20.6705 85.5945 20.7156 85.6669 20.7475C85.7393 20.7795 85.8253 20.7955 85.9247 20.7955ZM85.9247 19.7599C86.0028 19.7599 86.0721 19.7443 86.1325 19.7131C86.1935 19.6818 86.2415 19.6381 86.2763 19.582C86.3111 19.5259 86.3288 19.4602 86.3295 19.3849C86.3288 19.3111 86.3114 19.2468 86.2773 19.1921C86.2433 19.1367 86.196 19.0941 86.1357 19.0643C86.0753 19.0337 86.005 19.0185 85.9247 19.0185C85.843 19.0185 85.7717 19.0337 85.7106 19.0643C85.6495 19.0941 85.6023 19.1367 85.5689 19.1921C85.5355 19.2468 85.5192 19.3111 85.5199 19.3849C85.5192 19.4602 85.5359 19.5259 85.57 19.582C85.6048 19.6381 85.6527 19.6818 85.7138 19.7131C85.7749 19.7443 85.8452 19.7599 85.9247 19.7599ZM87.7691 18.7884C87.8586 18.7891 87.9481 18.8061 88.0376 18.8395C88.127 18.8729 88.2087 18.9283 88.2826 19.0057C88.3564 19.0824 88.4157 19.1871 88.4605 19.32C88.5052 19.4528 88.5276 19.6193 88.5276 19.8196C88.5276 20.0135 88.5091 20.1857 88.4722 20.3363C88.436 20.4862 88.3834 20.6126 88.3145 20.7156C88.2464 20.8185 88.1633 20.8967 88.0653 20.9499C87.968 21.0032 87.8579 21.0298 87.735 21.0298C87.6128 21.0298 87.5038 21.0057 87.4079 20.9574C87.3128 20.9084 87.2346 20.8406 87.1736 20.7539C87.1132 20.6665 87.0745 20.5653 87.0574 20.4503H87.3174C87.3408 20.5504 87.3873 20.6332 87.4569 20.6985C87.5273 20.7631 87.6199 20.7955 87.735 20.7955C87.9033 20.7955 88.0361 20.7219 88.1334 20.5749C88.2314 20.4279 88.2805 20.2202 88.2805 19.9517H88.2634C88.2236 20.0114 88.1764 20.0629 88.1217 20.1062C88.067 20.1495 88.0063 20.1829 87.9395 20.2063C87.8728 20.2298 87.8018 20.2415 87.7265 20.2415C87.6015 20.2415 87.4868 20.2106 87.3824 20.1488C87.2787 20.0863 87.1956 20.0007 87.1331 19.892C87.0713 19.7827 87.0404 19.6577 87.0404 19.517C87.0404 19.3835 87.0702 19.2614 87.1299 19.1506C87.1903 19.0391 87.2748 18.9503 87.3834 18.8842C87.4928 18.8182 87.6214 18.7862 87.7691 18.7884ZM87.7691 19.0227C87.6796 19.0227 87.599 19.0451 87.5273 19.0898C87.4562 19.1339 87.3998 19.1935 87.3579 19.2688C87.3167 19.3434 87.2961 19.4261 87.2961 19.517C87.2961 19.608 87.316 19.6907 87.3557 19.7653C87.3962 19.8391 87.4513 19.8981 87.5209 19.9421C87.5912 19.9854 87.6711 20.0071 87.7606 20.0071C87.828 20.0071 87.8909 19.994 87.9491 19.9677C88.0074 19.9407 88.0581 19.9041 88.1015 19.858C88.1455 19.8111 88.18 19.7582 88.2048 19.6992C88.2297 19.6396 88.2421 19.5774 88.2421 19.5128C88.2421 19.4276 88.2215 19.3477 88.1803 19.2731C88.1398 19.1985 88.0837 19.1381 88.012 19.092C87.941 19.0458 87.86 19.0227 87.7691 19.0227ZM89.6284 21.0298C89.5034 21.0298 89.3908 21.005 89.2907 20.9553C89.1905 20.9055 89.1103 20.8374 89.0499 20.7507C88.9895 20.6641 88.9565 20.5653 88.9508 20.4545H89.2065C89.2164 20.5533 89.2612 20.6349 89.3407 20.6996C89.421 20.7635 89.5169 20.7955 89.6284 20.7955C89.7179 20.7955 89.7974 20.7745 89.867 20.7326C89.9373 20.6907 89.9924 20.6332 90.0321 20.56C90.0726 20.4862 90.0929 20.4027 90.0929 20.3097C90.0929 20.2145 90.0719 20.1296 90.03 20.055C89.9888 19.9798 89.932 19.9205 89.8596 19.8771C89.7871 19.8338 89.7044 19.8118 89.6113 19.8111C89.5446 19.8104 89.476 19.8207 89.4057 19.842C89.3354 19.8626 89.2775 19.8892 89.2321 19.9219L88.9849 19.892L89.117 18.8182H90.2505V19.0526H89.3386L89.2619 19.696H89.2747C89.3194 19.6605 89.3755 19.631 89.443 19.6076C89.5105 19.5842 89.5808 19.5724 89.6539 19.5724C89.7875 19.5724 89.9064 19.6044 90.0108 19.6683C90.1159 19.7315 90.1983 19.8182 90.258 19.9283C90.3184 20.0384 90.3485 20.1641 90.3485 20.3054C90.3485 20.4446 90.3173 20.5689 90.2548 20.6783C90.193 20.7869 90.1078 20.8729 89.9991 20.9361C89.8904 20.9986 89.7669 21.0298 89.6284 21.0298ZM91.6198 21V19.3636H91.8627V19.6193H91.884C91.9181 19.532 91.9731 19.4641 92.0491 19.4158C92.1251 19.3668 92.2164 19.3423 92.3229 19.3423C92.4308 19.3423 92.5207 19.3668 92.5924 19.4158C92.6649 19.4641 92.7213 19.532 92.7618 19.6193H92.7789C92.8208 19.5348 92.8836 19.4677 92.9674 19.418C93.0512 19.3675 93.1517 19.3423 93.2689 19.3423C93.4152 19.3423 93.5349 19.3881 93.6279 19.4798C93.721 19.5707 93.7675 19.7124 93.7675 19.9048V21H93.5161V19.9048C93.5161 19.7841 93.483 19.6978 93.417 19.646C93.3509 19.5941 93.2732 19.5682 93.1837 19.5682C93.0686 19.5682 92.9795 19.603 92.9163 19.6726C92.8531 19.7415 92.8215 19.8288 92.8215 19.9347V21H92.5658V19.8793C92.5658 19.7862 92.5356 19.7113 92.4752 19.6545C92.4149 19.5969 92.3371 19.5682 92.2419 19.5682C92.1766 19.5682 92.1155 19.5856 92.0587 19.6204C92.0026 19.6552 91.9571 19.7035 91.9223 19.7653C91.8882 19.8263 91.8712 19.897 91.8712 19.9773V21H91.6198Z" fill="#F7FAFB"/>
<path d="M85.294 34L86.2699 32.0696V32.0526H85.1449V31.8182H86.5426V32.0653L85.571 34H85.294ZM86.7522 34.017C86.6997 34.017 86.6546 33.9982 86.6169 33.9606C86.5793 33.9229 86.5605 33.8778 86.5605 33.8253C86.5605 33.7727 86.5793 33.7276 86.6169 33.69C86.6546 33.6523 86.6997 33.6335 86.7522 33.6335C86.8048 33.6335 86.8499 33.6523 86.8875 33.69C86.9252 33.7276 86.944 33.7727 86.944 33.8253C86.944 33.8601 86.9351 33.892 86.9173 33.9212C86.9003 33.9503 86.8772 33.9737 86.8481 33.9915C86.8197 34.0085 86.7877 34.017 86.7522 34.017ZM87.3909 34V33.8082L88.1111 33.0199C88.1956 32.9276 88.2652 32.8473 88.3199 32.7791C88.3746 32.7102 88.415 32.6456 88.4413 32.5852C88.4683 32.5241 88.4818 32.4602 88.4818 32.3935C88.4818 32.3168 88.4633 32.2504 88.4264 32.1942C88.3902 32.1381 88.3405 32.0948 88.2773 32.0643C88.214 32.0337 88.143 32.0185 88.0642 32.0185C87.9804 32.0185 87.9072 32.0359 87.8447 32.0707C87.7829 32.1048 87.735 32.1527 87.7009 32.2145C87.6675 32.2763 87.6508 32.3487 87.6508 32.4318H87.3994C87.3994 32.304 87.4289 32.1918 87.4878 32.0952C87.5468 31.9986 87.627 31.9233 87.7286 31.8693C87.8309 31.8153 87.9456 31.7884 88.0727 31.7884C88.2006 31.7884 88.3138 31.8153 88.4126 31.8693C88.5113 31.9233 88.5887 31.9961 88.6448 32.0877C88.7009 32.1793 88.729 32.2812 88.729 32.3935C88.729 32.4737 88.7144 32.5522 88.6853 32.6289C88.6569 32.7049 88.6072 32.7898 88.5361 32.8835C88.4658 32.9766 88.3682 33.0902 88.2432 33.2244L87.7531 33.7486V33.7656H88.7673V34H87.3909ZM90.2897 33.4034L90.2854 33.0923H90.3366L91.0525 32.3636H91.3635L90.6008 33.1349H90.5795L90.2897 33.4034ZM90.0553 34V31.8182H90.3067V34H90.0553ZM91.0951 34L90.4559 33.1903L90.6349 33.0156L91.4147 34H91.0951ZM91.6871 34V32.3636H91.93V32.6193H91.9513C91.9854 32.532 92.0405 32.4641 92.1165 32.4158C92.1925 32.3668 92.2837 32.3423 92.3903 32.3423C92.4982 32.3423 92.5881 32.3668 92.6598 32.4158C92.7322 32.4641 92.7887 32.532 92.8292 32.6193H92.8462C92.8881 32.5348 92.951 32.4677 93.0348 32.418C93.1186 32.3675 93.2191 32.3423 93.3363 32.3423C93.4826 32.3423 93.6023 32.3881 93.6953 32.4798C93.7884 32.5707 93.8349 32.7124 93.8349 32.9048V34H93.5835V32.9048C93.5835 32.7841 93.5504 32.6978 93.4844 32.646C93.4183 32.5941 93.3406 32.5682 93.2511 32.5682C93.136 32.5682 93.0469 32.603 92.9837 32.6726C92.9205 32.7415 92.8888 32.8288 92.8888 32.9347V34H92.6332V32.8793C92.6332 32.7862 92.603 32.7113 92.5426 32.6545C92.4822 32.5969 92.4045 32.5682 92.3093 32.5682C92.244 32.5682 92.1829 32.5856 92.1261 32.6204C92.07 32.6552 92.0245 32.7035 91.9897 32.7653C91.9556 32.8263 91.9386 32.897 91.9386 32.9773V34H91.6871Z" fill="#F7FAFB"/>
<path d="M7.75568 6.5C7.73224 6.42827 7.70135 6.36399 7.663 6.30717C7.62536 6.24964 7.58026 6.20064 7.5277 6.16016C7.47585 6.11967 7.4169 6.08878 7.35085 6.06747C7.2848 6.04616 7.21236 6.03551 7.13352 6.03551C7.00426 6.03551 6.88672 6.06889 6.78089 6.13565C6.67507 6.20241 6.59091 6.30078 6.52841 6.43075C6.46591 6.56072 6.43466 6.72017 6.43466 6.90909C6.43466 7.09801 6.46626 7.25746 6.52947 7.38743C6.59268 7.5174 6.67827 7.61577 6.78622 7.68253C6.89418 7.74929 7.01563 7.78267 7.15057 7.78267C7.27557 7.78267 7.38565 7.75604 7.48082 7.70277C7.5767 7.64879 7.65128 7.5728 7.70455 7.47479C7.75852 7.37607 7.78551 7.25994 7.78551 7.12642L7.86648 7.14347H7.21023V6.90909H8.04119V7.14347C8.04119 7.32315 8.00284 7.4794 7.92614 7.61222C7.85014 7.74503 7.74503 7.84801 7.6108 7.92116C7.47727 7.99361 7.32386 8.02983 7.15057 8.02983C6.95739 8.02983 6.78764 7.98438 6.64134 7.89347C6.49574 7.80256 6.3821 7.6733 6.30043 7.50568C6.21946 7.33807 6.17898 7.1392 6.17898 6.90909C6.17898 6.73651 6.20206 6.58132 6.24822 6.44354C6.2951 6.30504 6.36115 6.18714 6.44638 6.08984C6.53161 5.99254 6.63246 5.91797 6.74893 5.86612C6.86541 5.81428 6.99361 5.78835 7.13352 5.78835C7.24858 5.78835 7.35582 5.80575 7.45526 5.84055C7.5554 5.87464 7.64453 5.9233 7.72266 5.98651C7.80149 6.04901 7.86719 6.12393 7.91974 6.21129C7.9723 6.29794 8.00852 6.39418 8.02841 6.5H7.75568ZM8.56214 8V6.36364H8.81357V8H8.56214ZM8.68999 6.09091C8.64098 6.09091 8.59872 6.07422 8.56321 6.04084C8.52841 6.00746 8.51101 5.96733 8.51101 5.92045C8.51101 5.87358 8.52841 5.83345 8.56321 5.80007C8.59872 5.76669 8.64098 5.75 8.68999 5.75C8.73899 5.75 8.78089 5.76669 8.8157 5.80007C8.85121 5.83345 8.86896 5.87358 8.86896 5.92045C8.86896 5.96733 8.85121 6.00746 8.8157 6.04084C8.78089 6.07422 8.73899 6.09091 8.68999 6.09091ZM9.27406 8.61364V6.36364H9.51696V6.62358H9.54679C9.56525 6.59517 9.59082 6.55895 9.62349 6.51491C9.65687 6.47017 9.70446 6.4304 9.76625 6.3956C9.82875 6.36009 9.91326 6.34233 10.0198 6.34233C10.1576 6.34233 10.279 6.37678 10.3841 6.44567C10.4893 6.51456 10.5713 6.61222 10.6302 6.73864C10.6892 6.86506 10.7187 7.0142 10.7187 7.18608C10.7187 7.35938 10.6892 7.50959 10.6302 7.63672C10.5713 7.76314 10.4896 7.86115 10.3852 7.93075C10.2808 7.99964 10.1604 8.03409 10.0241 8.03409C9.91895 8.03409 9.83478 8.01669 9.77157 7.98189C9.70836 7.94638 9.65971 7.90625 9.62562 7.86151C9.59153 7.81605 9.56525 7.77841 9.54679 7.74858H9.52548V8.61364H9.27406ZM9.52122 7.18182C9.52122 7.3054 9.53933 7.41442 9.57555 7.50888C9.61177 7.60263 9.66468 7.67614 9.73429 7.7294C9.80389 7.78196 9.88912 7.80824 9.98997 7.80824C10.0951 7.80824 10.1828 7.78054 10.2531 7.72514C10.3241 7.66903 10.3774 7.59375 10.4129 7.49929C10.4491 7.40412 10.4672 7.2983 10.4672 7.18182C10.4672 7.06676 10.4495 6.96307 10.414 6.87074C10.3792 6.7777 10.3263 6.70419 10.2552 6.65021C10.1849 6.59553 10.0965 6.56818 9.98997 6.56818C9.8877 6.56818 9.80176 6.59411 9.73216 6.64595C9.66255 6.69709 9.61 6.76882 9.57449 6.86115C9.53897 6.95277 9.52122 7.05966 9.52122 7.18182ZM11.8309 6.36364V6.5767H10.9488V6.36364H11.8309ZM11.213 8V6.13778C11.213 6.04403 11.235 5.96591 11.279 5.90341C11.3231 5.84091 11.3802 5.79403 11.4506 5.76278C11.5209 5.73153 11.5951 5.71591 11.6732 5.71591C11.735 5.71591 11.7854 5.72088 11.8245 5.73082C11.8635 5.74077 11.8927 5.75 11.9118 5.75852L11.8394 5.97585C11.8266 5.97159 11.8089 5.96626 11.7861 5.95987C11.7641 5.95348 11.735 5.95028 11.6988 5.95028C11.6157 5.95028 11.5557 5.97124 11.5187 6.01314C11.4825 6.05504 11.4644 6.11648 11.4644 6.19744V8H11.213ZM12.8019 8.03409C12.6443 8.03409 12.5083 7.99929 12.3939 7.92969C12.2803 7.85938 12.1926 7.76136 12.1308 7.63565C12.0697 7.50923 12.0392 7.36222 12.0392 7.1946C12.0392 7.02699 12.0697 6.87926 12.1308 6.75142C12.1926 6.62287 12.2785 6.52273 12.3886 6.45099C12.4994 6.37855 12.6286 6.34233 12.7764 6.34233C12.8616 6.34233 12.9458 6.35653 13.0289 6.38494C13.1119 6.41335 13.1876 6.45952 13.2558 6.52344C13.324 6.58665 13.3783 6.67045 13.4188 6.77486C13.4593 6.87926 13.4795 7.00781 13.4795 7.16051V7.26705H12.2181V7.04972H13.2238C13.2238 6.95739 13.2053 6.875 13.1684 6.80256C13.1322 6.73011 13.0803 6.67294 13.0129 6.63104C12.9461 6.58913 12.8673 6.56818 12.7764 6.56818C12.6762 6.56818 12.5896 6.59304 12.5164 6.64276C12.444 6.69176 12.3882 6.75568 12.3492 6.83452C12.3101 6.91335 12.2906 6.99787 12.2906 7.08807V7.23295C12.2906 7.35653 12.3119 7.46129 12.3545 7.54723C12.3978 7.63246 12.4578 7.69744 12.5345 7.74219C12.6112 7.78622 12.7004 7.80824 12.8019 7.80824C12.868 7.80824 12.9276 7.79901 12.9809 7.78054C13.0349 7.76136 13.0814 7.73295 13.1205 7.69531C13.1595 7.65696 13.1897 7.60937 13.211 7.55256L13.4539 7.62074C13.4284 7.70312 13.3854 7.77557 13.325 7.83807C13.2646 7.89986 13.1901 7.94815 13.1013 7.98295C13.0125 8.01705 12.9127 8.03409 12.8019 8.03409ZM14.1134 5.81818V8H13.8619V5.81818H14.1134ZM14.8253 7.01562V8H14.5739V5.81818H14.8253V6.61932H14.8466C14.8849 6.5348 14.9425 6.46768 15.0192 6.41797C15.0966 6.36754 15.1996 6.34233 15.3281 6.34233C15.4396 6.34233 15.5373 6.3647 15.6211 6.40945C15.7049 6.45348 15.7699 6.52131 15.8161 6.61293C15.8629 6.70384 15.8864 6.8196 15.8864 6.96023V8H15.6349V6.97727C15.6349 6.8473 15.6012 6.7468 15.5337 6.67578C15.467 6.60405 15.3743 6.56818 15.2557 6.56818C15.1733 6.56818 15.0994 6.58558 15.0341 6.62038C14.9695 6.65518 14.9183 6.70597 14.8807 6.77273C14.8438 6.83949 14.8253 6.92045 14.8253 7.01562ZM17.0111 8.03409C16.8634 8.03409 16.7338 7.99893 16.6222 7.92862C16.5115 7.85831 16.4248 7.75994 16.3623 7.63352C16.3005 7.5071 16.2696 7.35937 16.2696 7.19034C16.2696 7.01989 16.3005 6.87109 16.3623 6.74396C16.4248 6.61683 16.5115 6.51811 16.6222 6.4478C16.7338 6.37749 16.8634 6.34233 17.0111 6.34233C17.1588 6.34233 17.2881 6.37749 17.3989 6.4478C17.5104 6.51811 17.597 6.61683 17.6588 6.74396C17.7213 6.87109 17.7526 7.01989 17.7526 7.19034C17.7526 7.35937 17.7213 7.5071 17.6588 7.63352C17.597 7.75994 17.5104 7.85831 17.3989 7.92862C17.2881 7.99893 17.1588 8.03409 17.0111 8.03409ZM17.0111 7.80824C17.1233 7.80824 17.2156 7.77947 17.2881 7.72195C17.3605 7.66442 17.4142 7.58878 17.449 7.49503C17.4838 7.40128 17.5012 7.29972 17.5012 7.19034C17.5012 7.08097 17.4838 6.97905 17.449 6.88459C17.4142 6.79013 17.3605 6.71378 17.2881 6.65554C17.2156 6.5973 17.1233 6.56818 17.0111 6.56818C16.8989 6.56818 16.8066 6.5973 16.7341 6.65554C16.6617 6.71378 16.608 6.79013 16.5732 6.88459C16.5384 6.97905 16.521 7.08097 16.521 7.19034C16.521 7.29972 16.5384 7.40128 16.5732 7.49503C16.608 7.58878 16.6617 7.66442 16.7341 7.72195C16.8066 7.77947 16.8989 7.80824 17.0111 7.80824ZM16.7043 6.09091C16.6595 6.09091 16.6198 6.07386 16.585 6.03977C16.5509 6.00497 16.5338 5.9652 16.5338 5.92045C16.5338 5.87145 16.5509 5.83097 16.585 5.79901C16.6198 5.76634 16.6595 5.75 16.7043 5.75C16.7533 5.75 16.7938 5.76634 16.8257 5.79901C16.8584 5.83097 16.8747 5.87145 16.8747 5.92045C16.8747 5.9652 16.8584 6.00497 16.8257 6.03977C16.7938 6.07386 16.7533 6.09091 16.7043 6.09091ZM17.3179 6.09091C17.2732 6.09091 17.2334 6.07386 17.1986 6.03977C17.1645 6.00497 17.1475 5.9652 17.1475 5.92045C17.1475 5.87145 17.1645 5.83097 17.1986 5.79901C17.2334 5.76634 17.2732 5.75 17.3179 5.75C17.3669 5.75 17.4074 5.76634 17.4394 5.79901C17.472 5.83097 17.4884 5.87145 17.4884 5.92045C17.4884 5.9652 17.472 6.00497 17.4394 6.03977C17.4074 6.07386 17.3669 6.09091 17.3179 6.09091ZM18.3878 7.01562V8H18.1364V5.81818H18.3878V6.61932H18.4091C18.4474 6.5348 18.505 6.46768 18.5817 6.41797C18.6591 6.36754 18.7621 6.34233 18.8906 6.34233C19.0021 6.34233 19.0998 6.3647 19.1836 6.40945C19.2674 6.45348 19.3324 6.52131 19.3786 6.61293C19.4254 6.70384 19.4489 6.8196 19.4489 6.96023V8H19.1974V6.97727C19.1974 6.8473 19.1637 6.7468 19.0962 6.67578C19.0295 6.60405 18.9368 6.56818 18.8182 6.56818C18.7358 6.56818 18.6619 6.58558 18.5966 6.62038C18.532 6.65518 18.4808 6.70597 18.4432 6.77273C18.4063 6.83949 18.3878 6.92045 18.3878 7.01562ZM20.5949 8.03409C20.4372 8.03409 20.3012 7.99929 20.1869 7.92969C20.0732 7.85938 19.9855 7.76136 19.9237 7.63565C19.8627 7.50923 19.8321 7.36222 19.8321 7.1946C19.8321 7.02699 19.8627 6.87926 19.9237 6.75142C19.9855 6.62287 20.0715 6.52273 20.1816 6.45099C20.2923 6.37855 20.4216 6.34233 20.5693 6.34233C20.6546 6.34233 20.7387 6.35653 20.8218 6.38494C20.9049 6.41335 20.9806 6.45952 21.0487 6.52344C21.1169 6.58665 21.1713 6.67045 21.2117 6.77486C21.2522 6.87926 21.2725 7.00781 21.2725 7.16051V7.26705H20.0111V7.04972H21.0168C21.0168 6.95739 20.9983 6.875 20.9614 6.80256C20.9252 6.73011 20.8733 6.67294 20.8058 6.63104C20.7391 6.58913 20.6602 6.56818 20.5693 6.56818C20.4692 6.56818 20.3825 6.59304 20.3094 6.64276C20.2369 6.69176 20.1812 6.75568 20.1421 6.83452C20.1031 6.91335 20.0835 6.99787 20.0835 7.08807V7.23295C20.0835 7.35653 20.1048 7.46129 20.1475 7.54723C20.1908 7.63246 20.2508 7.69744 20.3275 7.74219C20.4042 7.78622 20.4933 7.80824 20.5949 7.80824C20.661 7.80824 20.7206 7.79901 20.7739 7.78054C20.8279 7.76136 20.8744 7.73295 20.9134 7.69531C20.9525 7.65696 20.9827 7.60937 21.004 7.55256L21.2469 7.62074C21.2213 7.70312 21.1784 7.77557 21.118 7.83807C21.0576 7.89986 20.983 7.94815 20.8943 7.98295C20.8055 8.01705 20.7057 8.03409 20.5949 8.03409Z" fill="#F7FAFB"/>
<path d="M7.45739 19.3636C7.4446 19.2557 7.39276 19.1719 7.30185 19.1122C7.21094 19.0526 7.09943 19.0227 6.96733 19.0227C6.87074 19.0227 6.78622 19.0384 6.71378 19.0696C6.64205 19.1009 6.58594 19.1438 6.54545 19.1985C6.50568 19.2532 6.4858 19.3153 6.4858 19.3849C6.4858 19.4432 6.49964 19.4933 6.52734 19.5352C6.55575 19.5763 6.59197 19.6108 6.63601 19.6385C6.68004 19.6655 6.72621 19.6879 6.7745 19.7056C6.8228 19.7227 6.86719 19.7365 6.90767 19.7472L7.12926 19.8068C7.18608 19.8217 7.24929 19.8423 7.31889 19.8686C7.3892 19.8949 7.45632 19.9308 7.52024 19.9762C7.58487 20.021 7.63814 20.0785 7.68004 20.1488C7.72195 20.2191 7.7429 20.3054 7.7429 20.4077C7.7429 20.5256 7.712 20.6321 7.65021 20.7273C7.58913 20.8224 7.49964 20.8981 7.38175 20.9542C7.26456 21.0103 7.12216 21.0384 6.95455 21.0384C6.7983 21.0384 6.663 21.0131 6.54865 20.9627C6.43501 20.9123 6.34553 20.842 6.28018 20.7518C6.21555 20.6616 6.17898 20.5568 6.17045 20.4375H6.44318C6.45028 20.5199 6.47798 20.5881 6.52628 20.642C6.57528 20.6953 6.63707 20.7351 6.71165 20.7614C6.78693 20.7869 6.8679 20.7997 6.95455 20.7997C7.0554 20.7997 7.14595 20.7834 7.22621 20.7507C7.30646 20.7173 7.37003 20.6712 7.4169 20.6122C7.46378 20.5526 7.48722 20.483 7.48722 20.4034C7.48722 20.331 7.46697 20.272 7.42649 20.2266C7.38601 20.1811 7.33274 20.1442 7.26669 20.1158C7.20064 20.0874 7.12926 20.0625 7.05256 20.0412L6.78409 19.9645C6.61364 19.9155 6.47869 19.8455 6.37926 19.7546C6.27983 19.6637 6.23011 19.5447 6.23011 19.3977C6.23011 19.2756 6.26314 19.169 6.32919 19.0781C6.39595 18.9865 6.48544 18.9155 6.59766 18.8651C6.71058 18.8139 6.83665 18.7884 6.97585 18.7884C7.11648 18.7884 7.24148 18.8136 7.35085 18.864C7.46023 18.9137 7.54688 18.9819 7.6108 19.0685C7.67543 19.1552 7.70952 19.2536 7.71307 19.3636H7.45739ZM8.80797 21.0341C8.65456 21.0341 8.52246 20.9979 8.41167 20.9254C8.30087 20.853 8.21564 20.7532 8.15598 20.6261C8.09632 20.4989 8.0665 20.3537 8.0665 20.1903C8.0665 20.0241 8.09703 19.8775 8.15811 19.7504C8.2199 19.6225 8.30584 19.5227 8.41593 19.451C8.52672 19.3786 8.65598 19.3423 8.80371 19.3423C8.91877 19.3423 9.02246 19.3636 9.11479 19.4062C9.20712 19.4489 9.28276 19.5085 9.34171 19.5852C9.40066 19.6619 9.43723 19.7514 9.45144 19.8537H9.20002C9.18084 19.7791 9.13823 19.7131 9.07218 19.6555C9.00684 19.5973 8.91877 19.5682 8.80797 19.5682C8.70996 19.5682 8.62402 19.5937 8.55016 19.6449C8.47701 19.6953 8.41983 19.7667 8.37864 19.859C8.33816 19.9506 8.31792 20.0582 8.31792 20.1818C8.31792 20.3082 8.3378 20.4183 8.37757 20.5121C8.41806 20.6058 8.47488 20.6786 8.54803 20.7305C8.62189 20.7823 8.70854 20.8082 8.80797 20.8082C8.87331 20.8082 8.93262 20.7969 8.98588 20.7741C9.03915 20.7514 9.08425 20.7188 9.12118 20.6761C9.15811 20.6335 9.18439 20.5824 9.20002 20.5227H9.45144C9.43723 20.6193 9.40208 20.7063 9.34597 20.7837C9.29057 20.8604 9.21706 20.9215 9.12544 20.967C9.03453 21.0117 8.92871 21.0341 8.80797 21.0341ZM10.0704 20.0156V21H9.81898V18.8182H10.0704V19.6193H10.0917C10.1301 19.5348 10.1876 19.4677 10.2643 19.418C10.3417 19.3675 10.4447 19.3423 10.5732 19.3423C10.6847 19.3423 10.7824 19.3647 10.8662 19.4094C10.95 19.4535 11.015 19.5213 11.0612 19.6129C11.108 19.7038 11.1315 19.8196 11.1315 19.9602V21H10.8801V19.9773C10.8801 19.8473 10.8463 19.7468 10.7789 19.6758C10.7121 19.604 10.6194 19.5682 10.5008 19.5682C10.4184 19.5682 10.3445 19.5856 10.2792 19.6204C10.2146 19.6552 10.1634 19.706 10.1258 19.7727C10.0889 19.8395 10.0704 19.9205 10.0704 20.0156ZM12.073 21.0384C11.9693 21.0384 11.8752 21.0188 11.7907 20.9798C11.7061 20.94 11.639 20.8828 11.5893 20.8082C11.5396 20.733 11.5147 20.642 11.5147 20.5355C11.5147 20.4418 11.5332 20.3658 11.5701 20.3075C11.6071 20.2486 11.6564 20.2024 11.7182 20.169C11.78 20.1357 11.8482 20.1108 11.9228 20.0945C11.998 20.0774 12.0737 20.0639 12.1497 20.054C12.2491 20.0412 12.3297 20.0316 12.3915 20.0252C12.454 20.0181 12.4995 20.0064 12.5279 19.9901C12.557 19.9737 12.5716 19.9453 12.5716 19.9048V19.8963C12.5716 19.7912 12.5428 19.7095 12.4853 19.6513C12.4284 19.593 12.3422 19.5639 12.2264 19.5639C12.1064 19.5639 12.0123 19.5902 11.9441 19.6428C11.8759 19.6953 11.8279 19.7514 11.8002 19.8111L11.5616 19.7259C11.6042 19.6264 11.661 19.549 11.7321 19.4936C11.8038 19.4375 11.8819 19.3984 11.9664 19.3764C12.0517 19.3537 12.1355 19.3423 12.2179 19.3423C12.2704 19.3423 12.3308 19.3487 12.399 19.3615C12.4679 19.3736 12.5343 19.3988 12.5982 19.4371C12.6628 19.4755 12.7164 19.5334 12.7591 19.6108C12.8017 19.6882 12.823 19.7919 12.823 19.9219V21H12.5716V20.7784H12.5588C12.5417 20.8139 12.5133 20.8519 12.4735 20.8924C12.4338 20.9329 12.3809 20.9673 12.3148 20.9957C12.2488 21.0241 12.1681 21.0384 12.073 21.0384ZM12.1113 20.8125C12.2108 20.8125 12.2946 20.793 12.3627 20.7539C12.4316 20.7148 12.4835 20.6644 12.5183 20.6026C12.5538 20.5408 12.5716 20.4759 12.5716 20.4077V20.1776C12.5609 20.1903 12.5375 20.2021 12.5012 20.2127C12.4657 20.2227 12.4245 20.2315 12.3777 20.2393C12.3315 20.2464 12.2864 20.2528 12.2424 20.2585C12.199 20.2635 12.1639 20.2678 12.1369 20.2713C12.0716 20.2798 12.0105 20.2937 11.9537 20.3129C11.8975 20.3313 11.8521 20.3594 11.8173 20.397C11.7832 20.4339 11.7662 20.4844 11.7662 20.5483C11.7662 20.6357 11.7985 20.7017 11.8631 20.7464C11.9284 20.7905 12.0112 20.8125 12.1113 20.8125ZM13.2819 21V19.3636H13.5248V19.6108H13.5418C13.5716 19.5298 13.6256 19.4641 13.7037 19.4137C13.7819 19.3633 13.8699 19.3381 13.968 19.3381C13.9864 19.3381 14.0095 19.3384 14.0372 19.3391C14.0649 19.3398 14.0858 19.3409 14.1001 19.3423V19.598C14.0915 19.5959 14.072 19.5927 14.0415 19.5884C14.0116 19.5835 13.98 19.581 13.9466 19.581C13.8671 19.581 13.7961 19.5977 13.7336 19.631C13.6718 19.6637 13.6228 19.7092 13.5866 19.7674C13.551 19.8249 13.5333 19.8906 13.5333 19.9645V21H13.2819ZM15.2123 19.3636V19.5767H14.3643V19.3636H15.2123ZM14.6114 18.9716H14.8628V20.5312C14.8628 20.6023 14.8731 20.6555 14.8937 20.6911C14.915 20.7259 14.942 20.7493 14.9747 20.7614C15.0081 20.7727 15.0432 20.7784 15.0802 20.7784C15.1079 20.7784 15.1306 20.777 15.1483 20.7741C15.1661 20.7706 15.1803 20.7678 15.191 20.7656L15.2421 20.9915C15.2251 20.9979 15.2013 21.0043 15.1707 21.0107C15.1402 21.0178 15.1015 21.0213 15.0546 21.0213C14.9836 21.0213 14.914 21.006 14.8458 20.9755C14.7783 20.945 14.7222 20.8984 14.6775 20.8359C14.6334 20.7734 14.6114 20.6946 14.6114 20.5994V18.9716ZM16.259 21.0341C16.1013 21.0341 15.9653 20.9993 15.8509 20.9297C15.7373 20.8594 15.6496 20.7614 15.5878 20.6357C15.5267 20.5092 15.4962 20.3622 15.4962 20.1946C15.4962 20.027 15.5267 19.8793 15.5878 19.7514C15.6496 19.6229 15.7355 19.5227 15.8456 19.451C15.9564 19.3786 16.0857 19.3423 16.2334 19.3423C16.3186 19.3423 16.4028 19.3565 16.4859 19.3849C16.569 19.4134 16.6446 19.4595 16.7128 19.5234C16.781 19.5866 16.8353 19.6705 16.8758 19.7749C16.9163 19.8793 16.9365 20.0078 16.9365 20.1605V20.267H15.6752V20.0497H16.6808C16.6808 19.9574 16.6624 19.875 16.6254 19.8026C16.5892 19.7301 16.5374 19.6729 16.4699 19.631C16.4031 19.5891 16.3243 19.5682 16.2334 19.5682C16.1333 19.5682 16.0466 19.593 15.9735 19.6428C15.901 19.6918 15.8453 19.7557 15.8062 19.8345C15.7671 19.9134 15.7476 19.9979 15.7476 20.0881V20.233C15.7476 20.3565 15.7689 20.4613 15.8115 20.5472C15.8548 20.6325 15.9149 20.6974 15.9916 20.7422C16.0683 20.7862 16.1574 20.8082 16.259 20.8082C16.325 20.8082 16.3847 20.799 16.4379 20.7805C16.4919 20.7614 16.5384 20.733 16.5775 20.6953C16.6166 20.657 16.6468 20.6094 16.6681 20.5526L16.911 20.6207C16.8854 20.7031 16.8424 20.7756 16.782 20.8381C16.7217 20.8999 16.6471 20.9482 16.5583 20.983C16.4695 21.017 16.3698 21.0341 16.259 21.0341ZM17.5704 20.0156V21H17.319V19.3636H17.5619V19.6193H17.5832C17.6215 19.5362 17.6798 19.4695 17.7579 19.419C17.836 19.3679 17.9369 19.3423 18.0605 19.3423C18.1713 19.3423 18.2682 19.3651 18.3513 19.4105C18.4344 19.4553 18.499 19.5234 18.5452 19.6151C18.5914 19.706 18.6144 19.821 18.6144 19.9602V21H18.363V19.9773C18.363 19.8487 18.3296 19.7486 18.2629 19.6768C18.1961 19.6044 18.1045 19.5682 17.988 19.5682C17.9078 19.5682 17.836 19.5856 17.7728 19.6204C17.7103 19.6552 17.661 19.706 17.6247 19.7727C17.5885 19.8395 17.5704 19.9205 17.5704 20.0156ZM19.3253 20.0156V21H19.0739V18.8182H19.3253V19.6193H19.3466C19.3849 19.5348 19.4425 19.4677 19.5192 19.418C19.5966 19.3675 19.6996 19.3423 19.8281 19.3423C19.9396 19.3423 20.0373 19.3647 20.1211 19.4094C20.2049 19.4535 20.2699 19.5213 20.3161 19.6129C20.3629 19.7038 20.3864 19.8196 20.3864 19.9602V21H20.1349V19.9773C20.1349 19.8473 20.1012 19.7468 20.0337 19.6758C19.967 19.604 19.8743 19.5682 19.7557 19.5682C19.6733 19.5682 19.5994 19.5856 19.5341 19.6204C19.4695 19.6552 19.4183 19.706 19.3807 19.7727C19.3438 19.8395 19.3253 19.9205 19.3253 20.0156ZM21.5111 21.0341C21.3634 21.0341 21.2338 20.9989 21.1222 20.9286C21.0115 20.8583 20.9248 20.7599 20.8623 20.6335C20.8005 20.5071 20.7696 20.3594 20.7696 20.1903C20.7696 20.0199 20.8005 19.8711 20.8623 19.744C20.9248 19.6168 21.0115 19.5181 21.1222 19.4478C21.2338 19.3775 21.3634 19.3423 21.5111 19.3423C21.6588 19.3423 21.7881 19.3775 21.8989 19.4478C22.0104 19.5181 22.097 19.6168 22.1588 19.744C22.2213 19.8711 22.2526 20.0199 22.2526 20.1903C22.2526 20.3594 22.2213 20.5071 22.1588 20.6335C22.097 20.7599 22.0104 20.8583 21.8989 20.9286C21.7881 20.9989 21.6588 21.0341 21.5111 21.0341ZM21.5111 20.8082C21.6233 20.8082 21.7156 20.7795 21.7881 20.7219C21.8605 20.6644 21.9142 20.5888 21.949 20.495C21.9838 20.4013 22.0012 20.2997 22.0012 20.1903C22.0012 20.081 21.9838 19.979 21.949 19.8846C21.9142 19.7901 21.8605 19.7138 21.7881 19.6555C21.7156 19.5973 21.6233 19.5682 21.5111 19.5682C21.3989 19.5682 21.3066 19.5973 21.2341 19.6555C21.1617 19.7138 21.108 19.7901 21.0732 19.8846C21.0384 19.979 21.021 20.081 21.021 20.1903C21.021 20.2997 21.0384 20.4013 21.0732 20.495C21.108 20.5888 21.1617 20.6644 21.2341 20.7219C21.3066 20.7795 21.3989 20.8082 21.5111 20.8082ZM21.2043 19.0909C21.1595 19.0909 21.1198 19.0739 21.085 19.0398C21.0509 19.005 21.0338 18.9652 21.0338 18.9205C21.0338 18.8714 21.0509 18.831 21.085 18.799C21.1198 18.7663 21.1595 18.75 21.2043 18.75C21.2533 18.75 21.2938 18.7663 21.3257 18.799C21.3584 18.831 21.3747 18.8714 21.3747 18.9205C21.3747 18.9652 21.3584 19.005 21.3257 19.0398C21.2938 19.0739 21.2533 19.0909 21.2043 19.0909ZM21.8179 19.0909C21.7732 19.0909 21.7334 19.0739 21.6986 19.0398C21.6645 19.005 21.6475 18.9652 21.6475 18.9205C21.6475 18.8714 21.6645 18.831 21.6986 18.799C21.7334 18.7663 21.7732 18.75 21.8179 18.75C21.8669 18.75 21.9074 18.7663 21.9394 18.799C21.972 18.831 21.9884 18.8714 21.9884 18.9205C21.9884 18.9652 21.972 19.005 21.9394 19.0398C21.9074 19.0739 21.8669 19.0909 21.8179 19.0909ZM22.8878 20.0156V21H22.6364V18.8182H22.8878V19.6193H22.9091C22.9474 19.5348 23.005 19.4677 23.0817 19.418C23.1591 19.3675 23.2621 19.3423 23.3906 19.3423C23.5021 19.3423 23.5998 19.3647 23.6836 19.4094C23.7674 19.4535 23.8324 19.5213 23.8786 19.6129C23.9254 19.7038 23.9489 19.8196 23.9489 19.9602V21H23.6974V19.9773C23.6974 19.8473 23.6637 19.7468 23.5962 19.6758C23.5295 19.604 23.4368 19.5682 23.3182 19.5682C23.2358 19.5682 23.1619 19.5856 23.0966 19.6204C23.032 19.6552 22.9808 19.706 22.9432 19.7727C22.9063 19.8395 22.8878 19.9205 22.8878 20.0156ZM25.0949 21.0341C24.9372 21.0341 24.8012 20.9993 24.6869 20.9297C24.5732 20.8594 24.4855 20.7614 24.4237 20.6357C24.3627 20.5092 24.3321 20.3622 24.3321 20.1946C24.3321 20.027 24.3627 19.8793 24.4237 19.7514C24.4855 19.6229 24.5715 19.5227 24.6816 19.451C24.7923 19.3786 24.9216 19.3423 25.0693 19.3423C25.1546 19.3423 25.2387 19.3565 25.3218 19.3849C25.4049 19.4134 25.4806 19.4595 25.5487 19.5234C25.6169 19.5866 25.6713 19.6705 25.7117 19.7749C25.7522 19.8793 25.7725 20.0078 25.7725 20.1605V20.267H24.5111V20.0497H25.5168C25.5168 19.9574 25.4983 19.875 25.4614 19.8026C25.4252 19.7301 25.3733 19.6729 25.3058 19.631C25.2391 19.5891 25.1602 19.5682 25.0693 19.5682C24.9692 19.5682 24.8825 19.593 24.8094 19.6428C24.7369 19.6918 24.6812 19.7557 24.6421 19.8345C24.6031 19.9134 24.5835 19.9979 24.5835 20.0881V20.233C24.5835 20.3565 24.6048 20.4613 24.6475 20.5472C24.6908 20.6325 24.7508 20.6974 24.8275 20.7422C24.9042 20.7862 24.9933 20.8082 25.0949 20.8082C25.161 20.8082 25.2206 20.799 25.2739 20.7805C25.3279 20.7614 25.3744 20.733 25.4134 20.6953C25.4525 20.657 25.4827 20.6094 25.504 20.5526L25.7469 20.6207C25.7213 20.7031 25.6784 20.7756 25.618 20.8381C25.5576 20.8999 25.483 20.9482 25.3943 20.983C25.3055 21.017 25.2057 21.0341 25.0949 21.0341Z" fill="#F7FAFB"/>
<path d="M6.9375 34H6.2642V31.8182H6.96733C7.17898 31.8182 7.36009 31.8619 7.51065 31.9492C7.66122 32.0359 7.77663 32.1605 7.85689 32.3232C7.93714 32.4851 7.97727 32.679 7.97727 32.9048C7.97727 33.1321 7.93679 33.3278 7.85582 33.4918C7.77486 33.6552 7.65696 33.7809 7.50213 33.869C7.3473 33.9563 7.15909 34 6.9375 34ZM6.52841 33.7656H6.92045C7.10085 33.7656 7.25036 33.7308 7.36896 33.6612C7.48757 33.5916 7.57599 33.4925 7.63423 33.364C7.69247 33.2354 7.72159 33.0824 7.72159 32.9048C7.72159 32.7287 7.69283 32.5771 7.6353 32.4499C7.57777 32.3221 7.49183 32.2241 7.37749 32.1559C7.26314 32.087 7.12074 32.0526 6.95028 32.0526H6.52841V33.7656ZM9.05114 34.0341C8.90341 34.0341 8.77379 33.9989 8.66229 33.9286C8.55149 33.8583 8.46484 33.7599 8.40234 33.6335C8.34055 33.5071 8.30966 33.3594 8.30966 33.1903C8.30966 33.0199 8.34055 32.8711 8.40234 32.744C8.46484 32.6168 8.55149 32.5181 8.66229 32.4478C8.77379 32.3775 8.90341 32.3423 9.05114 32.3423C9.19886 32.3423 9.32813 32.3775 9.43892 32.4478C9.55043 32.5181 9.63707 32.6168 9.69886 32.744C9.76136 32.8711 9.79261 33.0199 9.79261 33.1903C9.79261 33.3594 9.76136 33.5071 9.69886 33.6335C9.63707 33.7599 9.55043 33.8583 9.43892 33.9286C9.32813 33.9989 9.19886 34.0341 9.05114 34.0341ZM9.05114 33.8082C9.16335 33.8082 9.25568 33.7795 9.32812 33.7219C9.40057 33.6644 9.45419 33.5888 9.48899 33.495C9.52379 33.4013 9.54119 33.2997 9.54119 33.1903C9.54119 33.081 9.52379 32.979 9.48899 32.8846C9.45419 32.7901 9.40057 32.7138 9.32812 32.6555C9.25568 32.5973 9.16335 32.5682 9.05114 32.5682C8.93892 32.5682 8.84659 32.5973 8.77415 32.6555C8.7017 32.7138 8.64808 32.7901 8.61328 32.8846C8.57848 32.979 8.56108 33.081 8.56108 33.1903C8.56108 33.2997 8.57848 33.4013 8.61328 33.495C8.64808 33.5888 8.7017 33.6644 8.77415 33.7219C8.84659 33.7795 8.93892 33.8082 9.05114 33.8082ZM10.1764 34V32.3636H10.4193V32.6193H10.4406C10.4747 32.532 10.5297 32.4641 10.6057 32.4158C10.6817 32.3668 10.773 32.3423 10.8795 32.3423C10.9875 32.3423 11.0773 32.3668 11.1491 32.4158C11.2215 32.4641 11.278 32.532 11.3184 32.6193H11.3355C11.3774 32.5348 11.4403 32.4677 11.5241 32.418C11.6079 32.3675 11.7084 32.3423 11.8256 32.3423C11.9719 32.3423 12.0915 32.3881 12.1846 32.4798C12.2776 32.5707 12.3241 32.7124 12.3241 32.9048V34H12.0727V32.9048C12.0727 32.7841 12.0397 32.6978 11.9736 32.646C11.9076 32.5941 11.8298 32.5682 11.7403 32.5682C11.6253 32.5682 11.5361 32.603 11.4729 32.6726C11.4097 32.7415 11.3781 32.8288 11.3781 32.9347V34H11.1224V32.8793C11.1224 32.7862 11.0922 32.7113 11.0319 32.6545C10.9715 32.5969 10.8937 32.5682 10.7986 32.5682C10.7332 32.5682 10.6721 32.5856 10.6153 32.6204C10.5592 32.6552 10.5138 32.7035 10.479 32.7653C10.4449 32.8263 10.4278 32.897 10.4278 32.9773V34H10.1764ZM12.7838 34V32.3636H13.0352V34H12.7838ZM12.9117 32.0909C12.8627 32.0909 12.8204 32.0742 12.7849 32.0408C12.7501 32.0075 12.7327 31.9673 12.7327 31.9205C12.7327 31.8736 12.7501 31.8335 12.7849 31.8001C12.8204 31.7667 12.8627 31.75 12.9117 31.75C12.9607 31.75 13.0026 31.7667 13.0374 31.8001C13.0729 31.8335 13.0906 31.8736 13.0906 31.9205C13.0906 31.9673 13.0729 32.0075 13.0374 32.0408C13.0026 32.0742 12.9607 32.0909 12.9117 32.0909ZM13.7472 33.0156V34H13.4957V32.3636H13.7386V32.6193H13.7599C13.7983 32.5362 13.8565 32.4695 13.9347 32.419C14.0128 32.3679 14.1136 32.3423 14.2372 32.3423C14.348 32.3423 14.445 32.3651 14.5281 32.4105C14.6112 32.4553 14.6758 32.5234 14.7219 32.6151C14.7681 32.706 14.7912 32.821 14.7912 32.9602V34H14.5398V32.9773C14.5398 32.8487 14.5064 32.7486 14.4396 32.6768C14.3729 32.6044 14.2813 32.5682 14.1648 32.5682C14.0845 32.5682 14.0128 32.5856 13.9496 32.6204C13.8871 32.6552 13.8377 32.706 13.8015 32.7727C13.7653 32.8395 13.7472 32.9205 13.7472 33.0156ZM15.7322 34.0384C15.6285 34.0384 15.5344 34.0188 15.4498 33.9798C15.3653 33.94 15.2982 33.8828 15.2485 33.8082C15.1988 33.733 15.1739 33.642 15.1739 33.5355C15.1739 33.4418 15.1924 33.3658 15.2293 33.3075C15.2662 33.2486 15.3156 33.2024 15.3774 33.169C15.4392 33.1357 15.5074 33.1108 15.5819 33.0945C15.6572 33.0774 15.7329 33.0639 15.8089 33.054C15.9083 33.0412 15.9889 33.0316 16.0507 33.0252C16.1132 33.0181 16.1586 33.0064 16.1871 32.9901C16.2162 32.9737 16.2307 32.9453 16.2307 32.9048V32.8963C16.2307 32.7912 16.202 32.7095 16.1444 32.6513C16.0876 32.593 16.0013 32.5639 15.8856 32.5639C15.7655 32.5639 15.6714 32.5902 15.6032 32.6428C15.5351 32.6953 15.4871 32.7514 15.4594 32.8111L15.2208 32.7259C15.2634 32.6264 15.3202 32.549 15.3912 32.4936C15.463 32.4375 15.5411 32.3984 15.6256 32.3764C15.7108 32.3537 15.7947 32.3423 15.877 32.3423C15.9296 32.3423 15.99 32.3487 16.0581 32.3615C16.127 32.3736 16.1934 32.3988 16.2574 32.4371C16.322 32.4755 16.3756 32.5334 16.4182 32.6108C16.4608 32.6882 16.4822 32.7919 16.4822 32.9219V34H16.2307V33.7784H16.218C16.2009 33.8139 16.1725 33.8519 16.1327 33.8924C16.093 33.9329 16.04 33.9673 15.974 33.9957C15.9079 34.0241 15.8273 34.0384 15.7322 34.0384ZM15.7705 33.8125C15.8699 33.8125 15.9537 33.793 16.0219 33.7539C16.0908 33.7148 16.1427 33.6644 16.1775 33.6026C16.213 33.5408 16.2307 33.4759 16.2307 33.4077V33.1776C16.2201 33.1903 16.1966 33.2021 16.1604 33.2127C16.1249 33.2227 16.0837 33.2315 16.0368 33.2393C15.9907 33.2464 15.9456 33.2528 15.9015 33.2585C15.8582 33.2635 15.8231 33.2678 15.7961 33.2713C15.7307 33.2798 15.6697 33.2937 15.6128 33.3129C15.5567 33.3313 15.5113 33.3594 15.4765 33.397C15.4424 33.4339 15.4253 33.4844 15.4253 33.5483C15.4253 33.6357 15.4577 33.7017 15.5223 33.7464C15.5876 33.7905 15.6704 33.8125 15.7705 33.8125ZM17.1925 33.0156V34H16.9411V32.3636H17.1839V32.6193H17.2053C17.2436 32.5362 17.3018 32.4695 17.38 32.419C17.4581 32.3679 17.5589 32.3423 17.6825 32.3423C17.7933 32.3423 17.8903 32.3651 17.9734 32.4105C18.0565 32.4553 18.1211 32.5234 18.1673 32.6151C18.2134 32.706 18.2365 32.821 18.2365 32.9602V34H17.9851V32.9773C17.9851 32.8487 17.9517 32.7486 17.8849 32.6768C17.8182 32.6044 17.7266 32.5682 17.6101 32.5682C17.5298 32.5682 17.4581 32.5856 17.3949 32.6204C17.3324 32.6552 17.283 32.706 17.2468 32.7727C17.2106 32.8395 17.1925 32.9205 17.1925 33.0156ZM18.6491 34V33.8082L19.578 32.6151V32.598H18.6789V32.3636H19.9019V32.5639L18.9985 33.7486V33.7656H19.9317V34H18.6491Z" fill="#F7FAFB"/>
</svg>
